# xmcd
# 
# Track frame offsets:
#     182
#     12657
#     26997
#     37960
#     46912
#     59692
#     71547
#     83025
#     94535
#     106895
#     118667
# 
# Disc length: 1757
# 
# Revision: 0
# Processed by: cddbd v1.5.2PL0 Copyright (c) Steve Scherf et al.
# Submitted via: BonkEnc v1.0.0
# 
DISCID=8e06db0b
DTITLE=50's Hits Country - Great Records of the Decade - Volume 1
DYEAR=0
DGENRE=
TTITLE0=Hank Thompson - The Wild Side of Life
TTITLE1=slim whitman - Indian Love Call
TTITLE2=Ferlin Husky - Gone
TTITLE3=Faron Young - Alone with You
TTITLE4=Tex Ritter - High Noon
TTITLE5=Ernie Ford Tennessee - Sixteen Tons
TTITLE6=Jean Shepard and Ferlin Husky - A Dear John Letter
TTITLE7=Sonny James - Young Love
TTITLE8=Buck Owens - Under Your Spell Again
TTITLE9=Faron Young - Country Girl
TTITLE10=Hank Thompson and Merle Travis - Wildwood Flower
EXTD=
EXTT0=
EXTT1=
EXTT2=
EXTT3=
EXTT4=
EXTT5=
EXTT6=
EXTT7=
EXTT8=
EXTT9=
EXTT10=
PLAYORDER=
